<svg xmlns="http://www.w3.org/2000/svg" viewBox="0 0 266.8 51.5"><path d="M47.2 23.9l5.6-.2c.1 0 .3.1.3.2v11.3c0 .1.1.2.2.2l1.6.6c.1 0 .2.1.2.2v1.7c0 .1-.1.2-.2.2h-7.5c-.1 0-.2-.1-.2-.2v-1.7c0-.1.1-.2.2-.2l1.8-.6c.1 0 .2-.1.2-.2v-8.5c0-.1-.1-.2-.2-.2l-1.8-.4c-.1 0-.2-.1-.2-.2v-1.7c-.2-.2-.1-.3 0-.3zm1.4-4.6c0-.7.2-1.3.7-1.8.5-.4 1-.7 1.6-.7 1.5 0 2.3.8 2.3 2.4 0 .8-.2 1.4-.7 1.8s-1 .7-1.6.7c-.7 0-1.3-.2-1.7-.6-.4-.4-.6-1-.6-1.8zm8.5 18.8v-1.9c0-.1.1-.2.2-.2l1.7-.6c.1 0 .2-.1.2-.2V22.6c0-.1-.1-.2-.2-.2l-1.7-.7c-.1 0-.2-.1-.2-.2v-1.8c0-.1.1-.2.2-.2l6-.1h2.6c2.7 0 4.9.8 6.3 2.4 1.5 1.6 2.2 3.9 2.2 6.9 0 3-.8 5.4-2.4 7.2-1.6 1.7-3.8 2.6-6.6 2.6h-8.1c0-.2-.2-.3-.2-.4zm6.3-15.4v12.2c0 .1.1.2.2.2h2c1.4 0 2.5-.5 3.2-1.5s1.1-2.7 1.1-5c0-2.2-.4-3.8-1.1-4.8-.7-1-1.8-1.5-3.1-1.5h-2.2c0 .2-.1.3-.1.4zm17.4 9.5c.1 1 .4 1.8 1 2.3.6.6 1.3.9 2.3.9.7 0 1.4-.1 2.1-.3.8-.2 1.3-.4 1.8-.6l.4-.2c.1-.1.3 0 .3.1l.9 1.7c.1.1 0 .3-.1.4-.2.1-.4.3-.6.5-.4.3-1.1.6-2.2 1s-2.1.6-3.2.6c-2.3 0-4-.6-5.2-1.9-1.2-1.3-1.8-3.1-1.8-5.4 0-2.4.6-4.3 1.9-5.7 1.3-1.4 3-2.1 5.3-2.1 2 0 3.5.6 4.6 1.7 1.1 1.1 1.6 2.7 1.6 4.6l-.1 1.8c0 .1-.1.2-.2.2l-8.6.1c-.1 0-.2.1-.2.3zm2.6-5.6c-.7 0-1.3.3-1.8.8-.4.4-.7 1-.8 1.7 0 .2.1.3.3.3h4.3c.1 0 .3-.1.3-.3-.1-1.7-.8-2.5-2.3-2.5zm20.8 9.5c.1.1 0 .2-.1.3-1.7 1.4-3.6 2.2-5.6 2.2-2.2 0-3.9-.6-5.2-1.9-1.2-1.3-1.8-3.1-1.8-5.4 0-2.4.7-4.3 2-5.7 1.3-1.4 3.1-2.1 5.5-2.1.7 0 1.4.1 2.2.2.8.2 1.4.3 1.9.5l.4.2c.1 0 .2.2.2.3l-.1 3.9c0 .1-.1.2-.2.2h-2c-.1 0-.2-.1-.2-.2l-.3-1.6c0-.1-.1-.2-.2-.2-.5-.1-1.1-.2-1.7-.2-1 0-1.8.3-2.3 1s-.8 1.7-.8 3c0 1.5.3 2.7.9 3.5.6.8 1.4 1.2 2.5 1.2.4 0 .7 0 1-.1l.9-.3s.5-.2.7-.3c.2-.1.4-.2.7-.4.1-.1.2-.1.3-.2.1-.1.3 0 .3.1l1 2zm1.8-12.2l5.6-.2c.1 0 .3.1.3.2v11.3c0 .1.1.2.2.2l1.6.6c.1 0 .2.1.2.2v1.7c0 .1-.1.2-.2.2H106c-.1 0-.2-.1-.2-.2v-1.7c0-.1.1-.2.2-.2l1.8-.6c.1 0 .2-.1.2-.2v-8.5c0-.1-.1-.2-.2-.2l-1.8-.4c-.1 0-.2-.1-.2-.2v-1.7c-.1-.2 0-.3.2-.3zm1.4-4.6c0-.7.2-1.3.7-1.8.5-.4 1-.7 1.6-.7 1.5 0 2.3.8 2.3 2.4 0 .8-.2 1.4-.7 1.8s-1 .7-1.6.7c-.7 0-1.3-.2-1.7-.6-.4-.4-.6-1-.6-1.8zm10.9 16.2c.6.1 1.2.2 2.1.2 1.4 0 2.1-.5 2.1-1.5 0-.4-.2-.8-.7-1.1-.5-.3-1.1-.6-1.8-.8-.7-.2-1.4-.5-2.1-.8-.7-.3-1.3-.8-1.8-1.4-.5-.6-.7-1.4-.7-2.2 0-1.6.5-2.7 1.6-3.5 1.1-.7 2.4-1.1 4-1.1.7 0 1.5.1 2.3.2s1.5.3 2 .4l.5.1c.1 0 .2.2.2.3 0 .8-.1 2-.1 3.5 0 .1-.1.3-.2.3h-1.9c-.1 0-.2-.1-.2-.2l-.3-1.4c0-.1-.1-.2-.2-.2-.4-.1-1-.2-1.7-.2-.6 0-1 .1-1.3.4s-.5.6-.5 1 .2.8.7 1.1 1.1.5 1.8.8 1.4.5 2.1.7c.7.3 1.3.7 1.8 1.3.5.6.7 1.3.7 2.2 0 1.5-.6 2.7-1.7 3.6-1.1.9-2.6 1.3-4.5 1.3-.8 0-1.5 0-2.4-.1-.8-.1-1.5-.2-1.9-.3l-.4-.1c-.1 0-.2-.2-.2-.3v-3.9c0-.1.1-.2.2-.2h2c.1 0 .2.1.2.2l.2 1.5c0 .1 0 .2.1.2zm10.2-11.6l5.6-.2c.1 0 .3.1.3.2v11.3c0 .1.1.2.2.2l1.6.6c.1 0 .2.1.2.2v1.7c0 .1-.1.2-.2.2h-7.5c-.1 0-.2-.1-.2-.2v-1.7c0-.1.1-.2.2-.2l1.8-.6c.1 0 .2-.1.2-.2v-8.5c0-.1-.1-.2-.2-.2l-1.8-.4c-.1 0-.2-.1-.2-.2v-1.7c-.3-.2-.1-.3 0-.3zm1.4-4.6c0-.7.2-1.3.7-1.8.5-.4 1-.7 1.6-.7 1.5 0 2.3.8 2.3 2.4 0 .8-.2 1.4-.7 1.8s-1 .7-1.6.7c-.7 0-1.3-.2-1.7-.6-.4-.4-.6-1-.6-1.8zm14.7 4.2c2.2 0 3.9.6 5 1.9 1.2 1.3 1.8 3.1 1.8 5.4 0 2.4-.7 4.3-2 5.7-1.3 1.4-3.1 2.1-5.3 2.1-4.6 0-6.9-2.5-6.9-7.4 0-2.4.7-4.3 2-5.7 1.4-1.4 3.2-2 5.4-2zm-.2 3.1c-1 0-1.8.3-2.3 1-.5.7-.7 1.8-.7 3.5 0 1.5.2 2.7.7 3.4s1.2 1.1 2.2 1.1 1.7-.4 2.2-1.1c.5-.7.7-1.9.7-3.5 0-1.5-.2-2.5-.7-3.3-.4-.8-1.1-1.1-2.1-1.1zm13.5-2.9c.1 0 .2.1.3.2l.1 1.4c0 .1.1.2.2.1.2-.1.4-.3.6-.4.3-.2.9-.5 1.8-.9s1.7-.6 2.4-.6c1.3 0 2.3.4 3 1.3.7.9 1 2 1 3.5v7c0 .1.1.2.2.2.4.1 1.2.4 1.6.6.1 0 .2.1.2.2V38c0 .1-.1.2-.2.2h-6.8c-.1 0-.2-.1-.2-.2v-1.8c0-.1.1-.2.1-.2l1.1-.5c.1 0 .1-.1.1-.2v-6.4c0-.6-.2-1.1-.5-1.6-.3-.4-.8-.6-1.3-.6s-1 .1-1.5.4c-.5.3-.8.5-1.1.8l-.4.4v7c0 .1.1.2.1.2l1.1.5c.1 0 .1.1.1.2V38c0 .1-.1.2-.2.2h-7c-.1 0-.2-.1-.2-.2v-1.7c0-.1.1-.2.2-.2l1.7-.6c.1 0 .2-.1.2-.2v-8.5c0-.1-.1-.2-.2-.2l-1.7-.4c-.1 0-.2-.1-.2-.2v-1.7c0-.1.1-.2.2-.2l5.2-.4zm22-1.4c-3 0-4.5 2.2-4.5 6.6 0 4.2 1.5 6.3 4.6 6.3.4 0 .9 0 1.4-.1s.9-.2 1.2-.2c0 0 .1 0 .2-.1.1 0 .2-.2.2-.3v-3c0-.1-.1-.2-.2-.2l-1.7-.5c-.1 0-.2-.1-.2-.2v-1.8c0-.1.1-.2.2-.2l7.3-.1c.1 0 .3.1.3.2v1.9c0 .1-.1.2-.2.2l-1.5.5c-.1 0-.2.1-.2.2v5.1c0 .1-.1.3-.2.4-.2.1-.4.2-.7.4-.4.2-1.2.5-2.5.8-1.3.3-2.6.5-3.9.5-2.8 0-4.9-.8-6.4-2.4s-2.3-4-2.3-7.1c0-3.1.8-5.6 2.5-7.4 1.6-1.8 3.9-2.7 6.6-2.7 1 0 2 .1 3 .3 1 .2 1.9.4 2.4.6l.6.2c.1 0 .2.2.2.3l-.1 4.4c0 .1-.1.2-.2.2h-2.1c-.1 0-.2-.1-.2-.2l-.6-2c0-.1-.1-.1-.2-.2-.7-.3-1.7-.4-2.8-.4zm19.2 15.8l-.4-1.3c0-.1-.2-.2-.3-.1-.1.1-.3.2-.5.4-.3.2-.8.5-1.6.9s-1.5.6-2.2.6c-1.3 0-2.3-.4-3.1-1.1-.7-.7-1.1-1.8-1.1-3.1 0-3 2.2-4.5 6.5-4.5h1.6c.1 0 .2-.1.2-.2v-1.2c0-1.3-.7-2-2.1-2-.4 0-.8 0-1.2.1-.4.1-.7.1-.9.2h-.1s-.2.1-.2.3l-.3 1.3c0 .1-.1.2-.2.2h-2c-.1 0-.2-.1-.2-.2l-.2-3.6c0-.1.1-.2.2-.3 2.1-.7 4-1 5.7-1 2.1 0 3.5.4 4.3 1.2s1.3 2.2 1.3 4.1v6.5c0 .1.1.2.2.2l1.6.4c.1 0 .2.1.2.2v1.7c0 .1-.1.2-.2.2l-4.9.2c0 .1-.1 0-.1-.1zm-3.5-2.6c.4 0 .9-.1 1.4-.4.5-.3.9-.5 1.1-.8l.2-.2c.1-.1.2-.3.2-.4v-1.3c0-.1-.1-.2-.2-.2H197c-1 0-1.8.1-2.3.4-.5.3-.7.7-.7 1.3 0 1.1.5 1.6 1.6 1.6zm35.5.8V38c0 .1-.1.2-.2.2h-6.7c-.1 0-.2-.1-.2-.2v-1.8c0-.1.1-.2.1-.2l1.1-.5c.1 0 .1-.1.1-.2v-6.2c0-.8-.1-1.3-.4-1.7-.2-.4-.6-.5-1.2-.5-.5 0-1 .1-1.5.4-.5.2-.9.5-1.1.7l-.2.2c-.1.1-.2.3-.2.4v6.7c0 .1.1.2.1.2l1.1.5c.1 0 .1.1.1.2V38c0 .1-.1.2-.2.2h-6.3c-.1 0-.2-.1-.2-.2v-1.8c0-.1.1-.2.1-.2l1.1-.5c.1 0 .1-.1.1-.2v-6.2c0-.8-.1-1.3-.4-1.7-.2-.4-.6-.5-1.2-.5-.5 0-1 .1-1.5.4-.5.2-.9.5-1.1.7l-.2.2s-.2.3-.2.4v6.7c0 .1.1.2.1.2l1.1.5c.1 0 .1.1.1.2V38c0 .1-.1.2-.2.2h-7c-.1 0-.2-.1-.2-.2v-1.7c0-.1.1-.2.2-.2l1.7-.6c.1 0 .2-.1.2-.2v-8.5c0-.1-.1-.2-.2-.2l-1.7-.4c-.1 0-.2-.1-.2-.2v-1.7c0-.1.1-.2.2-.2l5.1-.2c.1 0 .2.1.3.2l.1 1.4c0 .1.1.2.2.1.2-.1.3-.3.5-.4.3-.2.9-.6 1.7-1 .8-.4 1.6-.6 2.3-.6 1.7 0 2.9.7 3.6 2.1.1.1.2.1.3.1.2-.2.5-.4.8-.7.4-.3.9-.6 1.7-1 .8-.4 1.5-.5 2.2-.5 1.4 0 2.4.4 3.1 1.3.7.8 1 2 1 3.6v7c0 .1.1.2.2.2l1.5.6c.3-.2.4-.1.4 0zm5.3-4.1c.1 1 .4 1.8 1 2.3.6.6 1.3.9 2.3.9.7 0 1.4-.1 2.1-.3.8-.2 1.3-.4 1.8-.6l.4-.2c.1-.1.3 0 .3.1l.9 1.7c.1.1 0 .3-.1.4-.2.1-.4.3-.6.5-.4.3-1.1.6-2.2 1s-2.1.6-3.2.6c-2.3 0-4-.6-5.2-1.9-1.2-1.3-1.8-3.1-1.8-5.4 0-2.4.6-4.3 1.9-5.7 1.3-1.4 3-2.1 5.3-2.1 2 0 3.5.6 4.6 1.7 1.1 1.1 1.6 2.7 1.6 4.6l-.1 1.8c0 .1-.1.2-.2.2l-8.5.1c-.2 0-.3.1-.3.3zm2.7-5.6c-.7 0-1.3.3-1.8.8-.4.4-.7 1-.8 1.7 0 .2.1.3.3.3h4.3c.1 0 .3-.1.3-.3-.2-1.7-.9-2.5-2.3-2.5zm11.2 8.9c.6.1 1.2.2 2.1.2 1.4 0 2.1-.5 2.1-1.5 0-.4-.2-.8-.7-1.1-.5-.3-1.1-.6-1.8-.8-.7-.2-1.4-.5-2.1-.8-.7-.3-1.3-.8-1.8-1.4-.5-.6-.7-1.4-.7-2.2 0-1.6.5-2.7 1.6-3.5 1.1-.7 2.4-1.1 4-1.1.7 0 1.5.1 2.3.2.8.1 1.5.3 2 .4l.5.1c.1 0 .2.2.2.3 0 .8-.1 2-.1 3.5 0 .1-.1.3-.2.3h-1.9c-.1 0-.2-.1-.2-.2l-.3-1.4c0-.1-.1-.2-.2-.2-.4-.1-1-.2-1.7-.2-.6 0-1 .1-1.3.4s-.5.6-.5 1 .2.8.7 1.1 1.1.5 1.8.8 1.4.5 2.1.7c.7.3 1.3.7 1.8 1.3.5.6.7 1.3.7 2.2 0 1.5-.6 2.7-1.7 3.6-1.1.9-2.6 1.3-4.5 1.3-.8 0-1.5 0-2.4-.1-.8-.1-1.5-.2-1.9-.3l-.4-.1c-.1 0-.2-.2-.2-.3v-3.9c0-.1.1-.2.2-.2h2c.1 0 .2.1.2.2l.2 1.5c-.1.1 0 .2.1.2z" fill="#fff"/><path fill="#FF6200" d="M17.1 17h-.5c-1.7 0-3.1 1.4-3.1 3.1 0 1.7 1.4 3.1 3.1 3.1h.5c1.7 0 3.1-1.4 3.1-3.1 0-1.7-1.4-3.1-3.1-3.1z"/><path fill="#fff" d="M27.9 24.1v2.6c0 .4.2.7.6.8l1.2.6c.2.1.3.3.3.5-.2 1.1-.7 2-1.3 2.8-1 1.2-2.4 1.8-4.2 1.8H21c-.5 0-.9-.4-.9-.9v-6.7c0-.2-.2-.4-.4-.4h-5.8c-.2 0-.4.2-.4.4v6.3c0 .4-.1.7-.2 1-.1.2-.3.4-.6.4l-1.4.5c-.3.1-.6.5-.6.8v3.3c0 .1.1.2.2.2h13.9c3.4 0 6.2-1.1 8.5-3.3 2.3-2.2 3.4-5 3.4-8.5v-2.5c0-.2-.2-.4-.4-.4h-8c-.2.3-.4.5-.4.7zm8.2-6.8c-.6-1.6-1.5-3-2.7-4.3-2.3-2.2-5.1-3.3-8.5-3.3H11c-.1 0-.2.1-.2.2v3.3c0 .4.2.7.6.8l1.6.6c.4.1.8.2 1.2.2h10.3c1.8 0 3.2.6 4.2 1.8.5.6 1.4 2.3 4.4 2.3h3.2c.1 0 .2-.1.2-.2-.1-.3-.2-.7-.4-1.4z"/></svg>